<svg xmlns="http://www.w3.org/2000/svg" xmlns:xlink="http://www.w3.org/1999/xlink" viewBox="0 0 302.72 235.2" xmlns:v="https://vecta.io/nano"><style><![CDATA[.B{fill:#6c63ff}.C{fill:#ffbbab}.D{fill:#fff}]]></style><defs><linearGradient id="A" x1="174.77" y1="165.62" x2="202.08" y2="421.46" gradientUnits="userSpaceOnUse"><stop offset=".01"/><stop offset=".08" stop-opacity=".7"/><stop offset=".21" stop-opacity=".32"/><stop offset="1" stop-opacity="0"/></linearGradient><linearGradient id="B" x1="2631.48" y1="460.28" x2="2751.85" y2="556.42" gradientTransform="matrix(-1.09, 0, 0, 1, 3152.05, -359.14)" gradientUnits="userSpaceOnUse"><stop offset="0" stop-color="#fff"/><stop offset="1" stop-color="#cbcbcb"/></linearGradient><linearGradient id="C" x1="244.95" y1="113.63" x2="214.28" y2="215.44" xlink:href="#A"/><linearGradient id="D" x1="210.509" y1="37.83" x2="210.585" y2="45.88" xlink:href="#B"/><linearGradient id="E" x1="2698.92" y1="422.95" x2="2699.37" y2="428.84" gradientTransform="matrix(-1.09, -0.01, -0.01, 1, 3156.12, -330.49)" xlink:href="#B"/><linearGradient id="F" x1="77.62" y1="157.17" x2="-22.91" y2="242.81" gradientUnits="userSpaceOnUse"><stop offset=".01"/><stop offset=".13" stop-opacity=".7"/><stop offset=".25" stop-opacity=".32"/><stop offset="1" stop-opacity="0"/></linearGradient><linearGradient id="G" x1="-9.47" y1="231.98" x2="141.92" y2="92.09" xlink:href="#F"/><linearGradient id="H" x1="112.46" y1="163.82" x2="132.46" y2="142.38" xlink:href="#A"/><linearGradient id="I" x1="100.89" y1="123.79" x2="131.07" y2="377.48" xlink:href="#A"/><linearGradient id="J" x1="143.71" y1="162.16" x2="91.13" y2="177.49" xlink:href="#A"/><linearGradient id="K" x1="100.89" y1="147.28" x2="131.07" y2="400.96" xlink:href="#A"/><linearGradient id="L" x1="89.23" y1="160.3" x2="153.21" y2="185.33" xlink:href="#A"/><linearGradient id="M" x1="118.61" y1="157.99" x2="154.71" y2="107.84" xlink:href="#A"/><linearGradient id="N" x1="291.74" y1="171.6" x2="211.5" y2="219.31" xlink:href="#A"/><linearGradient id="O" x1="260.51" y1="167.43" x2="303.38" y2="204.18" xlink:href="#A"/><linearGradient id="P" x1="256.12" y1="170.62" x2="266.83" y2="137.53" xlink:href="#A"/><linearGradient id="Q" x1="280.54" y1="168.75" x2="296.41" y2="202.61" xlink:href="#A"/><linearGradient id="R" x1="275.71" y1="185.69" x2="246.14" y2="192.34" xlink:href="#A"/><linearGradient id="S" x1="263.41" y1="151.64" x2="321.76" y2="182.77" xlink:href="#A"/><path id="T" d="M113.72 151.88s19.55-.6 24.4 1.43 12.4 25.52 12.4 25.52l-4.08 1.56s-6.94-14.62-9.22-15.93-26.7-6.1-26.7-6.1-1.87-1.43 3.2-6.47z"/><path id="U" d="M120.65 150.08l6.3-16.05h16.68l-8.4 19.28-25.55-.96.82-1.55 10.13-.72z"/><path id="V" d="M259.12 160.14l.97 48.02h6.5l1.88-38.16 4.1 38.16 7.46 1.25 1.7-50.84-22.63 1.57z"/></defs><path d="M133.07 34.05c-17 14.18-30.64 32.2-48.7 44.95-16.7 11.8-36.85 18.87-51.22 33.4-25.525 25.82-25.49 67.383.08 93.16 17.18 17.32 42.6 23.84 66.94 25.13s48.8-1.92 73.15-.6c23.05 1.24 46 6.52 69 4.76s47.4-12.6 56.5-33.8c10.06-23.47-1.47-49.88-9.42-74.15a262.36 262.36 0 0 1-11.84-56.51c-2.76-28.74-7.83-68.65-44-70.24a149.18 149.18 0 0 0-100.47 33.91z" opacity=".18" class="B"/><path d="M245.55 229.38c-54.6 7-109.94 1.62-165 1.78-4 0-9.45 1.66-8.82 5.6 32 7.56 65.23 8.15 98.13 8.7l59.87 1c13.7.23 27.4.46 41-.3 5.1-.3 10.3-.76 14.9-3 12.9-6.3 6.5-14.6-4.62-16-11.75-1.48-23.77.73-35.46 2.23z" transform="translate(-8.7 -25.02)" fill="url(#A)"/><path d="M157.16 51.87v148.2c0 6.4 5.68 11.6 12.68 11.58l67.76-.1c7 0 12.68-5.22 12.68-11.62V51.72c0-6.4-5.68-11.6-12.68-11.58l-67.76.1c-7 .01-12.68 5.22-12.68 11.63zm6.46.1c0-3.95 3.5-7.16 7.82-7.16H181v.88a4.8 4.8 0 0 0 5 4.57l36.43-.06a4.82 4.82 0 0 0 5-4.58v-.88h9.86c4.32 0 7.82 3.2 7.82 7.14v147.75c0 3.95-3.5 7.15-7.82 7.16l-65.84.1c-4.32 0-7.82-3.2-7.82-7.14z" class="B"/><path d="M153.97 54.9v148.2c0 6.4 5.68 11.6 12.68 11.58l67.77-.1c7 0 12.68-5.2 12.68-11.62V54.77c0-6.4-5.68-11.6-12.68-11.6l-67.77.1c-7 .01-12.68 5.22-12.68 11.62zm6.47.1c0-4 3.5-7.16 7.8-7.17h9.55v.88a4.79 4.79 0 0 0 5 4.56h36.42a4.82 4.82 0 0 0 5-4.59v-.87h9.87c4.3 0 7.8 3.2 7.8 7.14v147.7c0 3.94-3.5 7.15-7.8 7.16l-65.8.14c-4.32 0-7.8-3.2-7.8-7.14z" class="D"/><path d="M169.14 80v147.82c0 4 3.5 7.15 7.8 7.14l65.85-.1c4.3 0 7.8-3.22 7.8-7.16V79.9c0-4-3.5-7.15-7.8-7.14h-9.87v.87a4.82 4.82 0 0 1-5 4.59H191.5a4.79 4.79 0 0 1-5-4.56v-.88H177c-4.37.1-7.86 3.3-7.86 7.2z" transform="translate(-8.7 -25.02)" fill="none" stroke-miterlimit="10" stroke-width=".45" stroke="url(#B)"/><path d="M160.44 54.98V202.8c0 4 3.5 7.15 7.8 7.14l65.85-.1c4.3 0 7.8-3.22 7.8-7.16V54.9c0-4-3.5-7.15-7.8-7.14h-9.87v.87a4.82 4.82 0 0 1-5 4.59H182.8a4.79 4.79 0 0 1-5-4.56v-.88h-9.5c-4.37.1-7.86 3.3-7.86 7.2z" class="B"/><path opacity=".28" d="M173.9 93.26h58.45v14.28H173.9zm0-21.08h58.45v14.28H173.9z" class="D"/><path d="M212.12 126.1v.9L243 149.46s.57 5.3 1.4 5.92a21.5 21.5 0 0 0 4.07 1.6v3.5l7.37 5.1 2.33.8V159l-10.08-8-3.15-3.6-1.22 1z" transform="translate(-8.7 -25.02)" fill="url(#C)"/><path fill="url(#D)" d="M196.06 50.05l12.5-.02V49l-12.5.02v1.02z"/><ellipse cx="201.45" cy="74.42" rx="1.36" ry="1.25" transform="matrix(.999952 -.009774 .009774 .999952 -9.41 -23.06)" fill="url(#E)"/><path d="M0 134.5c.06 2.5 1.3 4.82 2.54 7 5.62 9.93 11.93 19.72 20.65 27.1 12.8 10.84 29.58 15.5 45.78 19.9-1.45-.7-3.2-8.17-3.84-9.8l-3.63-9.7c-1.9-5.1-5.9-9.22-9.8-13a77.62 77.62 0 0 0-31.22-18.32A73.76 73.76 0 0 0 0 134.5z" class="B"/><path d="M8.7 159.52c.06 2.5 1.3 4.82 2.54 7 5.62 9.93 11.93 19.72 20.65 27.1 12.8 10.84 29.58 15.5 45.78 19.9-1.45-.7-3.2-8.17-3.84-9.8L70.2 194c-1.9-5.1-5.9-9.22-9.8-13a77.62 77.62 0 0 0-31.22-18.32 73.76 73.76 0 0 0-20.49-3.16z" transform="translate(-8.7 -25.02)" fill="url(#F)"/><path d="M63.38 140.06c-1.32-9.24-2.68-18.62-6.4-27.18S46.8 96.52 38.06 93.26q-.37 19.86-.76 39.72c-.14 7.65-.27 15.44 1.92 22.77 3.84 12.83 17.2 27.9 30.08 32.14 1.9-6.17-1.3-15.5-2.2-21.92z" class="B"/><path d="M72.08 165.08c-1.32-9.24-2.68-18.62-6.4-27.18s-10.17-16.36-18.92-19.62Q46.4 138.14 46 158c-.14 7.65-.27 15.44 1.92 22.77 3.84 12.83 17.2 27.9 30.08 32.14 1.9-6.17-1.3-15.5-2.2-21.92z" transform="translate(-8.7 -25.02)" fill="url(#G)"/><g class="C"><path d="M113.2 121.2c-.45 0-.73-.48-.84-.92a2 2 0 0 0-.54-1.2c-.18-.14-.44-.23-.5-.45a.61.61 0 0 1 0-.3 3.56 3.56 0 0 1 1.9-2.36c.48.42 1.2.4 1.67.85a5.62 5.62 0 0 1 1.1 1.86l5.88 13.96a8.27 8.27 0 0 1 .89 3.41 2.85 2.85 0 0 1-1.86 2.75 2.64 2.64 0 0 1-2.21-.52 5.11 5.11 0 0 1-1.42-1.86c-1.16-2.34-1.33-5-1.68-7.63s-.6-5.67-2.38-7.6z"/><path d="M112.78 129.56a1 1 0 0 0-.79-.21.83.83 0 0 0-.37.27 4.72 4.72 0 0 0-1 4.15 3.28 3.28 0 0 0 .82 1.68 4.71 4.71 0 0 0 1.63.93l4.82 1.92a2.15 2.15 0 0 0 1.18.22 1.66 1.66 0 0 0 1-.8 3.87 3.87 0 0 0 .4-3.28c-.9-2.8-5.38-3.52-7.7-4.88z"/></g><path d="M107.74 123.1l6.62 6.3c.63.6 1.43 1.14 1.7 2a5.39 5.39 0 0 1-.32 3.64 16.07 16.07 0 0 0-1.31 3.81c0-.48-1.53-1.6-1.87-1.86l-2.26-1.66c-.74-.57-1.66-1.16-1.92-1.9a6.76 6.76 0 0 1-.07-1.44l-.5-7.7z" class="B"/><path d="M116.44 148.12l6.62 6.3c.63.6 1.43 1.14 1.7 2a5.39 5.39 0 0 1-.32 3.64 16.07 16.07 0 0 0-1.31 3.81c0-.48-1.53-1.6-1.87-1.86l-2.26-1.66c-.74-.57-1.66-1.16-1.92-1.9A6.76 6.76 0 0 1 117 157l-.5-7.7z" transform="translate(-8.7 -25.02)" fill="url(#H)"/><path d="M162.56 170.1a9.78 9.78 0 0 0-2.88 6.94 9.66 9.66 0 0 0 .84 4 9.8 9.8 0 0 0 6.46 5.54v2.25H48.72c-6.353-.185-11.407-5.39-11.407-11.745s5.054-11.56 11.407-11.745h118.26v2.25a9.78 9.78 0 0 0-4.42 2.51z" class="B"/><path d="M175.68 211.56v2.25H57.42a11.72 11.72 0 0 1-11.13-8c4.5.8 32.93 5.32 48.76-3.7l74.17 4a9.8 9.8 0 0 0 6.46 5.46z" transform="translate(-8.7 -25.02)" fill="url(#I)"/><path d="M162.56 170.1a9.82 9.82 0 0 0 4.42 16.44v.33h-70.8c-5.423 0-9.82-4.397-9.82-9.82s4.397-9.82 9.82-9.82h70.8v.32a9.78 9.78 0 0 0-4.42 2.55z" class="D"/><path d="M148.83 183.54a3 3 0 0 0 1.34.24l7 .17a1.75 1.75 0 0 0 .56-.06 1.1 1.1 0 0 0 .59-1.13 2.86 2.86 0 0 0-2.37-2.37 20.43 20.43 0 0 0-3.59-.22 3.14 3.14 0 0 1-2.51-1.26c-.55-.7-1.2-1.4-2.12-.74-1.43 1.1-.26 4.64 1.1 5.37z" class="C"/><use xlink:href="#T" fill="#473f47"/><use xlink:href="#T" x="8.7" y="25.02" transform="translate(-8.7 -25.02)" fill="url(#J)"/><path d="M162.56 193.58a9.79 9.79 0 0 0-2.88 7 9.65 9.65 0 0 0 .84 3.95 9.77 9.77 0 0 0 6.46 5.54v2.25H48.72a11.74 11.74 0 0 1-10.167-17.61 11.74 11.74 0 0 1 10.167-5.87h118.26v2.24a9.87 9.87 0 0 0-4.42 2.5z" class="B"/><path d="M175.68 235v2.25H57.42a11.72 11.72 0 0 1-11.13-8c4.5.8 32.93 5.32 48.76-3.7l74.17 3.95a9.77 9.77 0 0 0 6.46 5.5z" transform="translate(-8.7 -25.02)" fill="url(#K)"/><path d="M162.56 193.58a9.82 9.82 0 0 0 4.42 16.4v.33h-70.8c-5.423 0-9.82-4.397-9.82-9.82s4.397-9.82 9.82-9.82h70.8v.32a9.87 9.87 0 0 0-4.42 2.59z" class="D"/><path d="M143.47 190.4a3.56 3.56 0 0 1 1.13.18 1 1 0 0 1 .68.84 1.14 1.14 0 0 1-.58.91c-.32.2-.68.32-1 .53a6.22 6.22 0 0 1-.85.6 2.57 2.57 0 0 1-1.64-.07 21.69 21.69 0 0 0-7.49-.47 3.06 3.06 0 0 1-.74 0 2.18 2.18 0 0 1-1.49-1.5 10.67 10.67 0 0 1-.44-4.74 1.06 1.06 0 0 1 .13-.5.87.87 0 0 1 .37-.29c2.38-1.18 3.68 1.17 5.42 2.3a13.25 13.25 0 0 0 6.5 2.2z" class="C"/><path d="M100.46 153.1s-.6 8.88 7.34 11.56c5.5 1.85 11.82 1.5 17.5 1 1-.1 2.1-.33 3.12-.32 2 0 1.6 1.32 1.57 3q0 6.38-.1 12.75a15 15 0 0 0 .93 6.56l5.85-1.56a111.13 111.13 0 0 1 1.06-18.41c.38-2.64.95-5.94-.82-8.2a13.63 13.63 0 0 0-6.53-4.23l-15.84-5z" fill="#473f47"/><path d="M111.87 112.33c.3.5.9.78 1.1 1.33s-.22 1.32-.46 2c-.32.9-.22 1.93-.54 2.85a1.09 1.09 0 0 1-.32.52 1.32 1.32 0 0 1-.49.19 7.11 7.11 0 0 1-2.06.12.6.6 0 0 0-.4 0 .57.57 0 0 0-.18.35 11 11 0 0 0 .08 5.26c.15.56.3 1.26-.1 1.66a1 1 0 0 1-.53.27c-1.3.32-2.57-.65-3.46-1.66a15.33 15.33 0 0 1-2-3 2.85 2.85 0 0 1-.35-1 3.36 3.36 0 0 1 .16-1.24 22.31 22.31 0 0 0 .68-4.38c.1-1.9 0-3.86.68-5.6a3 3 0 0 1 1.15-1.47 3.8 3.8 0 0 1 2-.33 5.39 5.39 0 0 1 3.82 1.25c.3.33.87 2.28 1.24 2.9z" class="C"/><path d="M113.72 151.88a8.07 8.07 0 0 1-3.06 1.67l-2.45.8a25.73 25.73 0 0 0-3.44 1.31l-2.73.88-1.84.55a1.43 1.43 0 0 1 .19-.09c0 0-.4-1.77-1-4.25-1-4.56-2.68-11.5-3.5-14.08a14.71 14.71 0 0 1-.29-5c.4-5.5 2.6-12.68 6.6-12.22 0 0 5.66 2.93 7.37 5.2 1.56 2.1 3.64 3.7 3.66 6.55.05 4-1.62 7.75-1.3 11.9a3.76 3.76 0 0 0 .44 1.73c.48.75 1.43 1.1 1.9 1.86a2.7 2.7 0 0 1-.55 3.19z" class="B"/><path d="M116.16 176.1a4.44 4.44 0 0 1 .75 3.26 2 2 0 0 1-.6 1 3.64 3.64 0 0 1-1.63.68 20.84 20.84 0 0 1-3.94.51h-1.4a7.28 7.28 0 0 0-1.21-3.81c-1-4.56-2.68-11.5-3.5-14.08a14.71 14.71 0 0 1-.29-5 12.3 12.3 0 0 0 1.66-2.76c.3-.78.8-1.63 1.64-1.7s1.33.56 1.8 1.14c2.86 3.65 4.95 8.16 7.46 12.08a1 1 0 0 1 .21.58.89.89 0 0 1-.39.53c-1.08.9-2.23 2-2.35 3.38s.98 2.87 1.8 4.18z" transform="translate(-8.7 -25.02)" fill="url(#L)"/><path d="M104.6 146.64a5.15 5.15 0 0 0 .8 1.5 5.07 5.07 0 0 0 3.43 1.42 43.62 43.62 0 0 0 4.42.23c1 0 2.58-.48 3.42.32.2.2.35.44.56.63a2.8 2.8 0 0 0 1.94.57 15 15 0 0 0 4.48-.6.34.34 0 0 0 .24-.55 8.36 8.36 0 0 0-1.3-2.43 3.1 3.1 0 0 0-2.39-1.19 7.7 7.7 0 0 0-1.41.3 10 10 0 0 1-4.18-.28 12.23 12.23 0 0 1-4.49-1.54 3.51 3.51 0 0 1-.91-1.14 19.14 19.14 0 0 1-1.5-3.73c-.15-.5-.37-1.07-.87-1.24a1.43 1.43 0 0 0-1.08.19 5.37 5.37 0 0 0-2.72 2.81c-.37 1.28 1.05 3.48 1.56 4.73z" class="C"/><path d="M104.42 128.88s3.57 9.66 4.27 10.37-6.88 5-6.88 5-4.94-9.4-4.7-13.47 4.53-5.74 7.32-1.9z" class="B"/><path d="M110.05 109.3a3.91 3.91 0 0 1-1.25 2.42c-.67.63-1.5 1.05-2.2 1.66a2.72 2.72 0 0 0-1.1 2.38 1.24 1.24 0 0 0-1.5.49 1 1 0 0 0 .16 1 1.24 1.24 0 0 0 1 .42 3.91 3.91 0 0 0-1.77 1.42c-1.1 1.65-2.4 2.9-2 5.1.3 1.47 1.1 2.8 1.5 4.24a8.82 8.82 0 0 1-9 11.27c-2.66-.15-5.43-1.88-5.86-4.5-.48-3 2.08-5.65 2.37-8.66.15-1.63-.37-3.3 0-4.9.55-2.2 2.66-3.56 4.26-5.16 3.43-3.45 3.45-9.15 8.86-10.6 2.52-.6 6.76.13 6.5 3.44z" fill="#fc682d"/><use xlink:href="#U" class="B"/><use xlink:href="#U" fill="url(#M)"/><path d="M156.3 179.98a2.45 2.45 0 0 0-2.41.32c-.34.34-.5.8-.85 1.15a2.73 2.73 0 0 1-1.7.58 11.44 11.44 0 0 1-2.92-.16 1 1 0 0 0-.48 0 .67.67 0 0 0-.41.65 2 2 0 0 0 .22.78 2.18 2.18 0 0 0 .73 1 2.14 2.14 0 0 0 1.09.23 54.44 54.44 0 0 0 7.77-.18 2.8 2.8 0 0 0 1.76-.68c1.44-1.48-1.68-3.33-2.8-3.7zm-16.2 9h-1a1.14 1.14 0 0 0-.37 0 1.25 1.25 0 0 0-.57.48c-.33.42-.63 1-1.13 1.2a5 5 0 0 1-1.43.35 10.84 10.84 0 0 1-3.31-.23 1 1 0 0 0-.48 0 .66.66 0 0 0-.41.65 2 2 0 0 0 .22.78 2.15 2.15 0 0 0 2.17 1.57h4.08l3.78-.05a10.22 10.22 0 0 0 2.52-.36 2.74 2.74 0 0 0 1.45-.91 1.32 1.32 0 0 0 0-1.61 2 2 0 0 0-.9-.49l-2.65-.92a9.42 9.42 0 0 0-1.55-.44z" class="B"/><path d="M243.16 123.18h-.07a4 4 0 0 1-.83-.82 9.31 9.31 0 0 0-2.59-2.25c-.4-.24-1-.43-1.32-.07-.1.12-.16.3-.28.4-.28.26-.73.1-1.05-.1s-.73-.42-1.06-.22a.78.78 0 0 0-.3.65 3.47 3.47 0 0 0 .54 1.63 21.81 21.81 0 0 0 1.64 2.76 1.66 1.66 0 0 0 1.51.84 5.62 5.62 0 0 1 2.72.7 1.11 1.11 0 0 0 .57.29c.6.06.82-1.82.92-2.25.05-.2.32-.9.22-1.12s-.42-.32-.62-.43z" class="C"/><use xlink:href="#V" class="B"/><use xlink:href="#V" fill="url(#N)"/><path fill="url(#O)" d="M275.58 207.4v-44.5l6.17-4.33-2.08 49.6-4.1-.75z"/><path d="M241.4 128.7l.14.12c1.4 1.2 12.32 10.6 14 10.06a51.45 51.45 0 0 0 6.52-3.53l.55-.33V121.8l-6.86 8.18-12.13-7.15z" class="B"/><path d="M250.24 153.84c1.4 1.2 12.32 10.6 14 10.06a51.45 51.45 0 0 0 6.52-3.53 9.72 9.72 0 0 0 .07-1.62c0-1.17.4-4-1.4-3.32-1.46.56-2.52 2.45-4 3.16a3.2 3.2 0 0 1-1.65.78c-1 .06-1.8-.75-2.5-1.46a29.74 29.74 0 0 0-8.45-6.08.85.85 0 0 0-.45-.12.82.82 0 0 0-.45.3l-1.7 1.83z" transform="translate(-8.7 -25.02)" fill="url(#P)"/><path d="M276.92 117.66a57.41 57.41 0 0 1 5.07 2.87c3.48 2.23 2.86 3.26 2.22 7.1a151.64 151.64 0 0 0-2 24.9 21.78 21.78 0 0 1-.43 6c-.36 1.24-1.2 2.28-1.3 3.6-5.37.74-17.66 3.5-21.34-2-3.52-5.28 2.82-24 1.64-32.38s9.62-9.27 9.62-9.27z" class="B"/><path d="M278.22 181.17l9.73 6.57 1.6-2a35.81 35.81 0 0 0 1.3-10.4v-3.37l-13.7 8.66z" transform="translate(-8.7 -25.02)" fill="url(#Q)"/><path d="M264.67 109.54a11.56 11.56 0 0 0 .1 1.66 10.46 10.46 0 0 0 1.33 3.23 2.49 2.49 0 0 0 .7.9 2.71 2.71 0 0 0 2 .16 1.11 1.11 0 0 1 .48 0c.38.15.43.67.4 1.08l-.1 1.9a1.22 1.22 0 0 0 .13.76 1 1 0 0 0 .51.33 4.1 4.1 0 0 0 4.11-.93 2.88 2.88 0 0 0 .64-.87 3.49 3.49 0 0 0 .24-1c.23-1.83 0-3.68.17-5.5a18 18 0 0 0 .13-4.57 5 5 0 0 0-2.94-3.72 7.48 7.48 0 0 0-4.83.11 22.89 22.89 0 0 0-2.25.76 1.49 1.49 0 0 0-.87.63c-.3.6 0 1.44 0 2.07.07 1 .05 2 .05 3z" class="C"/><path d="M277.5 102.7c-1.44-2.16-4.8-2.2-7.14-2.5a1.91 1.91 0 0 1-.94-.31.63.63 0 0 1-.12-.9l-1.78 1v-1.32a16 16 0 0 1-1.93 1.31V98.8a5 5 0 0 0-1.74 5.31c.57 2 3.6 2.2 5.28 2.12a8.18 8.18 0 0 1 1.4 0 2 2 0 0 1 1.22.6 4.4 4.4 0 0 1 .61 2.09.26.26 0 0 0 .05.12.32.32 0 0 0 .09 0c.52.06 1-.55 1.48-.34a.76.76 0 0 1 .39.65 1.89 1.89 0 0 1-.13.94 1 1 0 0 0-.12.37.76.76 0 0 0 .06.25l.33.9a1.46 1.46 0 0 0 .57.83 1.35 1.35 0 0 0 1.25-.25 2 2 0 0 0 .67-.55 1.94 1.94 0 0 0 .24-.66 30.45 30.45 0 0 0 .54-6.88 3.86 3.86 0 0 0-.28-1.6z" fill="#963637"/><path d="M275.22 116.8s1.5 1 1.45 2.17-8.12 23.9-8.12 23.9v-22.8a16.63 16.63 0 0 1 1.09-2.86c0 0 3.23 2.34 5.58-.4z" class="D"/><path fill="#212741" d="M272.58 118.84l.54 1.76-.9.77-.44 12.35-3.2 9.13-.08-9.28 2.76-12.26-1-1.73 1.33-.74h1.02z"/><path d="M266.6 150.98a21.19 21.19 0 0 0 3.22 3.27l.74.6a1.89 1.89 0 0 0 .95.44 1.68 1.68 0 0 0 .7-.17 151.08 151.08 0 0 0 13.81-6.19c1.9-1 3.95-2.23 4.35-4.3a6.59 6.59 0 0 0-.05-2.17 62.88 62.88 0 0 0-4.09-15.31c-.57-1.4-1.27-4.07-2.76-5h0l-.18-.1-.2-.1c-2-.72-3.74 1.28-4.3 3a13.54 13.54 0 0 0 .23 7.46 45.3 45.3 0 0 1 1.71 7.35 2 2 0 0 1-.1 1 2.3 2.3 0 0 1-.77.78z" class="B"/><path d="M266.6 208.16l-.35 3.54-2.23.4-1-.88-1.72 1.35h-6.7s-1.7-2.93 2-3.93l3.7-1zm13.06 0l-.35 3.54-2.23.4-1-.88-1.7 1.35h-6.7s-1.7-2.93 2-3.93l3.7-1z" fill="#212741"/><path fill="url(#R)" d="M268.48 170l-3-2.43-2.1 40.08 3.22.5 1.88-38.16z"/><path d="M278.52 179.27l.74.6a1.89 1.89 0 0 0 .95.44 1.68 1.68 0 0 0 .7-.17 151.08 151.08 0 0 0 13.81-6.19c1.9-1 3.95-2.23 4.35-4.3a6.59 6.59 0 0 0-.05-2.17 62.88 62.88 0 0 0-4.09-15.31c-.57-1.4-1.27-4.07-2.76-5h0l-.18-.1-.2-.1a4.48 4.48 0 0 0-4.29 3s7.12 14.56 6.8 16.76-15.25 9.28-15.25 9.28z" transform="translate(-8.7 -25.02)" fill="url(#S)"/><path d="M263.3 152.2a2.83 2.83 0 0 0-1.07.53 1.07 1.07 0 0 0-.34 1.08 4.34 4.34 0 0 0 .41.64c.2.34.22.77.4 1.12a2.54 2.54 0 0 0 1.49 1.08c1.78.64 3.95.73 5.4-.5 1-.9 3.14-4.58.83-5.14a9.05 9.05 0 0 0-2.92.3 25.91 25.91 0 0 0-4.18.89z" class="C"/><path d="M203.72 100.74l-.3.33 43.36 26.6.32-.72-43.38-26.2z" class="D"/><path d="M235.68 120.98a1.34 1.34 0 0 1 .15-.95 1.14 1.14 0 0 1 .92-.37 1.34 1.34 0 0 1 .49.05c.36.13.57.5.8.8a1.54 1.54 0 0 0 .25.26 1.74 1.74 0 0 0 .41.2 2.36 2.36 0 0 1 .58.27 2.56 2.56 0 0 1 .68.78 4.46 4.46 0 0 1 .43.77 2.76 2.76 0 0 1 .17 1.1.56.56 0 0 1-.09.36.53.53 0 0 1-.36.17 2.48 2.48 0 0 1-1.56-.4c-.47-.28-.9-.65-1.33-1a3 3 0 0 1-1.54-2.04z" class="C"/></svg>